<svg version="1" xmlns="http://www.w3.org/2000/svg" width="666.667" height="666.667" viewBox="0 0 500.000000 500.000000"><path d="M0 250v250h500V0H0v250zm144.6-48c17.5 55.5 32.1 101 32.4 101 .5 0 20.1-59.9 20-61.3 0-.4-10.6-31.9-23.5-70-12.9-38-23.5-69.5-23.5-69.9 0-.5 16.8-.7 37.2-.6l37.2.3 12.6 44.2c6.9 24.3 12.7 44.4 13 44.7.3.2 6.3-19.8 13.5-44.5l12.9-44.9h37.3c20.5 0 37.3.2 37.3.3 0 .2-10.8 31.6-24 69.8-13.2 38.1-24 70.1-24 71 0 3 20.2 61.1 21 60.2.4-.4 14.8-45.9 32.1-101L387.5 101h44.4c36.1 0 44.2.2 43.8 1.3-.4 1.2-91.8 234.3-108.9 277.9l-6.9 17.8h-33.3c-25.5 0-33.6-.3-34.3-1.3-.5-.6-10.1-24.5-21.4-53-12.9-32.8-20.7-51.3-21.2-50.5-.5.7-10 24.5-21.1 52.8l-20.3 51.5H140.6l-1.8-4.5c-6.2-15.4-113.1-288.8-113.5-290.3-.5-1.6 2-1.7 43.4-1.7h43.9l32 101z"/></svg>